<svg xmlns="http://www.w3.org/2000/svg" width="1280" height="700" viewBox="0 0 1280 700">
  <defs>
    <style>
      .label { font-family: Inter, Arial, sans-serif; font-size: 18px; font-weight: 700; fill: #ffffff; paint-order: stroke; stroke: #111827; stroke-width: 4px; stroke-linejoin: round; }
      .small { font-family: Inter, Arial, sans-serif; font-size: 14px; font-weight: 700; fill: #ffffff; paint-order: stroke; stroke: #111827; stroke-width: 3px; stroke-linejoin: round; }
    </style>
  </defs>

  <rect x="0" y="0" width="1280" height="700" fill="none" stroke="#38bdf8" stroke-width="4"/>

  <rect x="0" y="0" width="1280" height="80" fill="#2563eb" fill-opacity="0.12"/>
  <rect x="0" y="620" width="1280" height="80" fill="#2563eb" fill-opacity="0.12"/>
  <rect x="0" y="80" width="160" height="540" fill="#2563eb" fill-opacity="0.12"/>
  <rect x="1120" y="80" width="160" height="540" fill="#2563eb" fill-opacity="0.12"/>

  <rect x="160" y="80" width="960" height="540" fill="#0f172a" fill-opacity="0.04" stroke="#ffffff" stroke-width="4"/>
  <text x="176" y="108" class="label">SCREEN 960x540</text>

  <rect x="160" y="80" width="960" height="72" fill="#f59e0b" fill-opacity="0.20" stroke="#f59e0b" stroke-width="2"/>
  <text x="566" y="124" class="small">TOP UI 960x72</text>

  <rect x="160" y="508" width="960" height="112" fill="#f59e0b" fill-opacity="0.22" stroke="#f59e0b" stroke-width="2"/>
  <text x="548" y="574" class="small">BOTTOM UI 960x112</text>

  <rect x="160" y="80" width="112" height="72" fill="#ef4444" fill-opacity="0.30" stroke="#ef4444" stroke-width="3"/>
  <text x="176" y="120" class="small">POKI 112x72</text>

  <rect x="160" y="152" width="960" height="356" fill="#22c55e" fill-opacity="0.08" stroke="#22c55e" stroke-width="3"/>
  <text x="520" y="336" class="label">PLAY 960x356</text>

  <line x1="640" y1="0" x2="640" y2="700" stroke="#ffffff" stroke-opacity="0.40" stroke-width="2" stroke-dasharray="6 8"/>
  <line x1="0" y1="350" x2="1280" y2="350" stroke="#ffffff" stroke-opacity="0.40" stroke-width="2" stroke-dasharray="6 8"/>

  <line x1="480" y1="80" x2="480" y2="620" stroke="#ffffff" stroke-opacity="0.22" stroke-width="1" stroke-dasharray="4 8"/>
  <line x1="800" y1="80" x2="800" y2="620" stroke="#ffffff" stroke-opacity="0.22" stroke-width="1" stroke-dasharray="4 8"/>
  <line x1="160" y1="260" x2="1120" y2="260" stroke="#ffffff" stroke-opacity="0.22" stroke-width="1" stroke-dasharray="4 8"/>
  <line x1="160" y1="440" x2="1120" y2="440" stroke="#ffffff" stroke-opacity="0.22" stroke-width="1" stroke-dasharray="4 8"/>

  <text x="560" y="48" class="small">TOP BLEED 80</text>
  <text x="540" y="672" class="small">BOTTOM BLEED 80</text>
  <text x="28" y="354" class="small">LEFT 160</text>
  <text x="1174" y="354" class="small">RIGHT 160</text>
  <text x="24" y="28" class="small">MASTER 1280x700</text>
  <text x="1010" y="672" class="small">ORIGIN 160,80</text>
</svg>
