{"asset":{"version":"2.0","generator":"game-67-idle starter mech mesh generator"},"buffers":[{"uri":"data:application/octet-stream;base64,","byteLength":756}],"bufferViews":[{"buffer":0,"byteOffset":0,"byteLength":336,"target":34962},{"buffer":0,"byteOffset":336,"byteLength":336,"target":34962},{"buffer":0,"byteOffset":672,"byteLength":84,"target":34963}],"accessors":[{"bufferView":0,"componentType":5126,"count":28,"type":"VEC3","min":[-0.5,-0.36,-0.48],"max":[0.5,0.34,0.3]},{"bufferView":1,"componentType":5126,"count":28,"type":"VEC3"},{"bufferView":2,"componentType":5123,"count":42,"type":"SCALAR"}],"meshes":[{"primitives":[{"attributes":{"POSITION":0,"NORMAL":1},"indices":2,"mode":4}]}],"nodes":[{"mesh":0}],"scenes":[{"nodes":[0]}],"scene":0}