{"asset":{"version":"2.0","generator":"game-67-idle starter mech mesh generator"},"buffers":[{"uri":"data:application/octet-stream;base64,","byteLength":1728}],"bufferViews":[{"buffer":0,"byteOffset":0,"byteLength":768,"target":34962},{"buffer":0,"byteOffset":768,"byteLength":768,"target":34962},{"buffer":0,"byteOffset":1536,"byteLength":192,"target":34963}],"accessors":[{"bufferView":0,"componentType":5126,"count":64,"type":"VEC3","min":[-0.68,-0.56,-0.58],"max":[0.68,0.58,0.58]},{"bufferView":1,"componentType":5126,"count":64,"type":"VEC3"},{"bufferView":2,"componentType":5123,"count":96,"type":"SCALAR"}],"meshes":[{"primitives":[{"attributes":{"POSITION":0,"NORMAL":1},"indices":2,"mode":4}]}],"nodes":[{"mesh":0}],"scenes":[{"nodes":[0]}],"scene":0}