{"asset":{"version":"2.0","generator":"game-67-idle starter mech mesh generator"},"buffers":[{"uri":"data:application/octet-stream;base64,","byteLength":972}],"bufferViews":[{"buffer":0,"byteOffset":0,"byteLength":432,"target":34962},{"buffer":0,"byteOffset":432,"byteLength":432,"target":34962},{"buffer":0,"byteOffset":864,"byteLength":108,"target":34963}],"accessors":[{"bufferView":0,"componentType":5126,"count":36,"type":"VEC3","min":[-0.64,-0.3,-0.7],"max":[0.64,0.36,0.62]},{"bufferView":1,"componentType":5126,"count":36,"type":"VEC3"},{"bufferView":2,"componentType":5123,"count":54,"type":"SCALAR"}],"meshes":[{"primitives":[{"attributes":{"POSITION":0,"NORMAL":1},"indices":2,"mode":4}]}],"nodes":[{"mesh":0}],"scenes":[{"nodes":[0]}],"scene":0}