{"asset":{"version":"2.0","generator":"game-67-idle static GLB extractor","extras":{"source":"C:/projects/game-67-idle/assets/source/models/poly_pizza/tekano_bob/poly_pizza_tekano_sentinel_mech_ccby30.glb"}},"buffers":[{"uri":"data:application/octet-stream;base64,","byteLength":312488}],"bufferViews":[{"buffer":0,"byteOffset":0,"byteLength":108552,"target":34962},{"buffer":0,"byteOffset":108552,"byteLength":108552,"target":34962},{"buffer":0,"byteOffset":217104,"byteLength":72368,"target":34962},{"buffer":0,"byteOffset":289472,"byteLength":23016,"target":34963}],"accessors":[{"bufferView":0,"componentType":5126,"count":9046,"type":"VEC3","min":[-1.4990129470825195,-2.5832300186157227,-1.3455090522766113],"max":[1.4735549688339233,2.181148052215576,0.9992154836654663]},{"bufferView":1,"componentType":5126,"count":9046,"type":"VEC3"},{"bufferView":2,"componentType":5126,"count":9046,"type":"VEC2"},{"bufferView":3,"componentType":5123,"count":11508,"type":"SCALAR"}],"meshes":[{"primitives":[{"attributes":{"POSITION":0,"NORMAL":1,"TEXCOORD_0":2},"indices":3,"mode":4}]}],"nodes":[{"mesh":0}],"scenes":[{"nodes":[0]}],"scene":0}