{"asset":{"version":"2.0","generator":"game-67-idle static GLB extractor","extras":{"source":"C:/projects/game-67-idle/assets/source/models/poly_pizza/tekano_bob/poly_pizza_tekano_sentinel_mech_ccby30.glb"}},"buffers":[{"uri":"data:application/octet-stream;base64,","byteLength":32016}],"bufferViews":[{"buffer":0,"byteOffset":0,"byteLength":10944,"target":34962},{"buffer":0,"byteOffset":10944,"byteLength":10944,"target":34962},{"buffer":0,"byteOffset":21888,"byteLength":7296,"target":34962},{"buffer":0,"byteOffset":29184,"byteLength":2832,"target":34963}],"accessors":[{"bufferView":0,"componentType":5126,"count":912,"type":"VEC3","min":[-0.1343151032924652,1.4630049467086792,-0.07304053753614426],"max":[-0.05183565989136696,1.6279189586639404,0.010840860195457935]},{"bufferView":1,"componentType":5126,"count":912,"type":"VEC3"},{"bufferView":2,"componentType":5126,"count":912,"type":"VEC2"},{"bufferView":3,"componentType":5123,"count":1416,"type":"SCALAR"}],"meshes":[{"primitives":[{"attributes":{"POSITION":0,"NORMAL":1,"TEXCOORD_0":2},"indices":3,"mode":4}]}],"nodes":[{"mesh":0}],"scenes":[{"nodes":[0]}],"scene":0}