{"asset":{"version":"2.0","generator":"game-67-idle static GLB extractor","extras":{"source":"C:/projects/game-67-idle/assets/source/models/poly_pizza/alimayo_arango/poly_pizza_alimayo_mech_assault_walker_ccby30.glb"}},"buffers":[{"uri":"data:application/octet-stream;base64,","byteLength":204736}],"bufferViews":[{"buffer":0,"byteOffset":0,"byteLength":60648,"target":34962},{"buffer":0,"byteOffset":60648,"byteLength":60648,"target":34962},{"buffer":0,"byteOffset":121296,"byteLength":40432,"target":34962},{"buffer":0,"byteOffset":161728,"byteLength":43008,"target":34963}],"accessors":[{"bufferView":0,"componentType":5126,"count":5054,"type":"VEC3","min":[5.089087009429932,0.4907039999961853,-0.6960859894752502],"max":[7.092538833618164,6.1890549659729,7.233749866485596]},{"bufferView":1,"componentType":5126,"count":5054,"type":"VEC3"},{"bufferView":2,"componentType":5126,"count":5054,"type":"VEC2"},{"bufferView":3,"componentType":5123,"count":21504,"type":"SCALAR"}],"meshes":[{"primitives":[{"attributes":{"POSITION":0,"NORMAL":1,"TEXCOORD_0":2},"indices":3,"mode":4}]}],"nodes":[{"mesh":0}],"scenes":[{"nodes":[0]}],"scene":0}