{"asset":{"version":"2.0","generator":"game-67-idle static GLB extractor","extras":{"source":"C:/projects/game-67-idle/assets/source/models/poly_pizza/tekano_bob/poly_pizza_tekano_sentinel_mech_ccby30.glb"}},"buffers":[{"uri":"data:application/octet-stream;base64,","byteLength":129206}],"bufferViews":[{"buffer":0,"byteOffset":0,"byteLength":44400,"target":34962},{"buffer":0,"byteOffset":44400,"byteLength":44400,"target":34962},{"buffer":0,"byteOffset":88800,"byteLength":29600,"target":34962},{"buffer":0,"byteOffset":118400,"byteLength":10806,"target":34963}],"accessors":[{"bufferView":0,"componentType":5126,"count":3700,"type":"VEC3","min":[-1.5054080486297607,-1.8372639417648315,-1.3399569988250732],"max":[1.3562999963760376,1.2317659854888916,0.827048122882843]},{"bufferView":1,"componentType":5126,"count":3700,"type":"VEC3"},{"bufferView":2,"componentType":5126,"count":3700,"type":"VEC2"},{"bufferView":3,"componentType":5123,"count":5403,"type":"SCALAR"}],"meshes":[{"primitives":[{"attributes":{"POSITION":0,"NORMAL":1,"TEXCOORD_0":2},"indices":3,"mode":4}]}],"nodes":[{"mesh":0}],"scenes":[{"nodes":[0]}],"scene":0}