{"asset":{"version":"2.0","generator":"game-67-idle static GLB extractor","extras":{"source":"C:/projects/game-67-idle/assets/source/models/poly_pizza/alimayo_arango/poly_pizza_alimayo_mech_assault_walker_ccby30.glb"}},"buffers":[{"uri":"data:application/octet-stream;base64,","byteLength":100064}],"bufferViews":[{"buffer":0,"byteOffset":0,"byteLength":29172,"target":34962},{"buffer":0,"byteOffset":29172,"byteLength":29172,"target":34962},{"buffer":0,"byteOffset":58344,"byteLength":19448,"target":34962},{"buffer":0,"byteOffset":77792,"byteLength":22272,"target":34963}],"accessors":[{"bufferView":0,"componentType":5126,"count":2431,"type":"VEC3","min":[3.946336030960083,0.1155100017786026,-4.569129943847656],"max":[8.216506958007812,8.396005630493164,7.344313144683838]},{"bufferView":1,"componentType":5126,"count":2431,"type":"VEC3"},{"bufferView":2,"componentType":5126,"count":2431,"type":"VEC2"},{"bufferView":3,"componentType":5123,"count":11136,"type":"SCALAR"}],"meshes":[{"primitives":[{"attributes":{"POSITION":0,"NORMAL":1,"TEXCOORD_0":2},"indices":3,"mode":4}]}],"nodes":[{"mesh":0}],"scenes":[{"nodes":[0]}],"scene":0}