{"asset":{"version":"2.0","generator":"game-67-idle static GLB extractor","extras":{"source":"C:/projects/game-67-idle/assets/source/models/poly_pizza/alimayo_arango/poly_pizza_alimayo_mech_assault_walker_ccby30.glb"}},"buffers":[{"uri":"data:application/octet-stream;base64,","byteLength":15272}],"bufferViews":[{"buffer":0,"byteOffset":0,"byteLength":5232,"target":34962},{"buffer":0,"byteOffset":5232,"byteLength":5232,"target":34962},{"buffer":0,"byteOffset":10464,"byteLength":3488,"target":34962},{"buffer":0,"byteOffset":13952,"byteLength":1320,"target":34963}],"accessors":[{"bufferView":0,"componentType":5126,"count":436,"type":"VEC3","min":[-1.139765977859497,3.2316091060638428,-0.9622769951820374],"max":[1.1306860446929932,6.913997173309326,2.0674688816070557]},{"bufferView":1,"componentType":5126,"count":436,"type":"VEC3"},{"bufferView":2,"componentType":5126,"count":436,"type":"VEC2"},{"bufferView":3,"componentType":5123,"count":660,"type":"SCALAR"}],"meshes":[{"primitives":[{"attributes":{"POSITION":0,"NORMAL":1,"TEXCOORD_0":2},"indices":3,"mode":4}]}],"nodes":[{"mesh":0}],"scenes":[{"nodes":[0]}],"scene":0}