{"asset":{"version":"2.0","generator":"game-67-idle static GLB extractor","extras":{"source":"C:/projects/game-67-idle/assets/source/models/poly_pizza/alimayo_arango/poly_pizza_alimayo_mech_assault_walker_ccby30.glb"}},"buffers":[{"uri":"data:application/octet-stream;base64,","byteLength":28800}],"bufferViews":[{"buffer":0,"byteOffset":0,"byteLength":9072,"target":34962},{"buffer":0,"byteOffset":9072,"byteLength":9072,"target":34962},{"buffer":0,"byteOffset":18144,"byteLength":6048,"target":34962},{"buffer":0,"byteOffset":24192,"byteLength":4608,"target":34963}],"accessors":[{"bufferView":0,"componentType":5126,"count":756,"type":"VEC3","min":[-4.441774845123291,-8.611255645751953,-2.370281934738159],"max":[4.441774845123291,0.3967759907245636,3.0179269313812256]},{"bufferView":1,"componentType":5126,"count":756,"type":"VEC3"},{"bufferView":2,"componentType":5126,"count":756,"type":"VEC2"},{"bufferView":3,"componentType":5123,"count":2304,"type":"SCALAR"}],"meshes":[{"primitives":[{"attributes":{"POSITION":0,"NORMAL":1,"TEXCOORD_0":2},"indices":3,"mode":4}]}],"nodes":[{"mesh":0}],"scenes":[{"nodes":[0]}],"scene":0}