{"asset":{"version":"2.0","generator":"game-67-idle static GLB extractor","extras":{"source":"C:/projects/game-67-idle/assets/source/models/poly_pizza/alimayo_arango/poly_pizza_alimayo_mech_assault_walker_ccby30.glb"}},"buffers":[{"uri":"data:application/octet-stream;base64,","byteLength":8352}],"bufferViews":[{"buffer":0,"byteOffset":0,"byteLength":2880,"target":34962},{"buffer":0,"byteOffset":2880,"byteLength":2880,"target":34962},{"buffer":0,"byteOffset":5760,"byteLength":1920,"target":34962},{"buffer":0,"byteOffset":7680,"byteLength":672,"target":34963}],"accessors":[{"bufferView":0,"componentType":5126,"count":240,"type":"VEC3","min":[2.6346869468688965,2.939655065536499,2.396332025527954],"max":[3.7950379848480225,4.100006103515625,3.5566821098327637]},{"bufferView":1,"componentType":5126,"count":240,"type":"VEC3"},{"bufferView":2,"componentType":5126,"count":240,"type":"VEC2"},{"bufferView":3,"componentType":5123,"count":336,"type":"SCALAR"}],"meshes":[{"primitives":[{"attributes":{"POSITION":0,"NORMAL":1,"TEXCOORD_0":2},"indices":3,"mode":4}]}],"nodes":[{"mesh":0}],"scenes":[{"nodes":[0]}],"scene":0}