{"asset":{"version":"2.0","generator":"game-67-idle static GLB extractor","extras":{"source":"C:/projects/game-67-idle/assets/source/models/poly_pizza/alimayo_arango/poly_pizza_alimayo_mech_assault_walker_ccby30.glb"}},"buffers":[{"uri":"data:application/octet-stream;base64,","byteLength":352476}],"bufferViews":[{"buffer":0,"byteOffset":0,"byteLength":110268,"target":34962},{"buffer":0,"byteOffset":110268,"byteLength":110268,"target":34962},{"buffer":0,"byteOffset":220536,"byteLength":73512,"target":34962},{"buffer":0,"byteOffset":294048,"byteLength":58428,"target":34963}],"accessors":[{"bufferView":0,"componentType":5126,"count":9189,"type":"VEC3","min":[-7.669548034667969,-8.988954544067383,-6.677886962890625],"max":[7.669548034667969,8.742504119873047,7.351335048675537]},{"bufferView":1,"componentType":5126,"count":9189,"type":"VEC3"},{"bufferView":2,"componentType":5126,"count":9189,"type":"VEC2"},{"bufferView":3,"componentType":5123,"count":29214,"type":"SCALAR"}],"meshes":[{"primitives":[{"attributes":{"POSITION":0,"NORMAL":1,"TEXCOORD_0":2},"indices":3,"mode":4}]}],"nodes":[{"mesh":0}],"scenes":[{"nodes":[0]}],"scene":0}