{"asset":{"version":"2.0","generator":"game-67-idle static GLB extractor","extras":{"source":"C:/projects/game-67-idle/assets/source/models/poly_pizza/tekano_bob/poly_pizza_tekano_sentinel_mech_ccby30.glb"}},"buffers":[{"uri":"data:application/octet-stream;base64,","byteLength":23184}],"bufferViews":[{"buffer":0,"byteOffset":0,"byteLength":8064,"target":34962},{"buffer":0,"byteOffset":8064,"byteLength":8064,"target":34962},{"buffer":0,"byteOffset":16128,"byteLength":5376,"target":34962},{"buffer":0,"byteOffset":21504,"byteLength":1680,"target":34963}],"accessors":[{"bufferView":0,"componentType":5126,"count":672,"type":"VEC3","min":[-0.7368186712265015,-2.3943018913269043,-0.5749834775924683],"max":[0.732516884803772,-2.031970977783203,0.07737094163894653]},{"bufferView":1,"componentType":5126,"count":672,"type":"VEC3"},{"bufferView":2,"componentType":5126,"count":672,"type":"VEC2"},{"bufferView":3,"componentType":5123,"count":840,"type":"SCALAR"}],"meshes":[{"primitives":[{"attributes":{"POSITION":0,"NORMAL":1,"TEXCOORD_0":2},"indices":3,"mode":4}]}],"nodes":[{"mesh":0}],"scenes":[{"nodes":[0]}],"scene":0}