{"asset":{"version":"2.0","generator":"game-67-idle static GLB extractor","extras":{"source":"C:/projects/game-67-idle/assets/source/models/poly_pizza/tekano_bob/poly_pizza_tekano_sentinel_mech_ccby30.glb"}},"buffers":[{"uri":"data:application/octet-stream;base64,","byteLength":35376}],"bufferViews":[{"buffer":0,"byteOffset":0,"byteLength":12096,"target":34962},{"buffer":0,"byteOffset":12096,"byteLength":12096,"target":34962},{"buffer":0,"byteOffset":24192,"byteLength":8064,"target":34962},{"buffer":0,"byteOffset":32256,"byteLength":3120,"target":34963}],"accessors":[{"bufferView":0,"componentType":5126,"count":1008,"type":"VEC3","min":[-0.2847326099872589,0.06490206718444824,0.1178286001086235],"max":[0.5672869086265564,0.6823797225952148,0.5889601111412048]},{"bufferView":1,"componentType":5126,"count":1008,"type":"VEC3"},{"bufferView":2,"componentType":5126,"count":1008,"type":"VEC2"},{"bufferView":3,"componentType":5123,"count":1560,"type":"SCALAR"}],"meshes":[{"primitives":[{"attributes":{"POSITION":0,"NORMAL":1,"TEXCOORD_0":2},"indices":3,"mode":4}]}],"nodes":[{"mesh":0}],"scenes":[{"nodes":[0]}],"scene":0}