{"asset":{"version":"2.0","generator":"game-67-idle static GLB extractor","extras":{"source":"C:/projects/game-67-idle/assets/source/models/quaternius/poly_pizza_quaternius_robot_enemy_legs_gun_cc0.glb"}},"buffers":[{"uri":"data:application/octet-stream;base64,","byteLength":5532}],"bufferViews":[{"buffer":0,"byteOffset":0,"byteLength":1872,"target":34962},{"buffer":0,"byteOffset":1872,"byteLength":1872,"target":34962},{"buffer":0,"byteOffset":3744,"byteLength":1248,"target":34962},{"buffer":0,"byteOffset":4992,"byteLength":540,"target":34963}],"accessors":[{"bufferView":0,"componentType":5126,"count":156,"type":"VEC3","min":[-0.14088889548649247,0.7194923145178874,-0.09333613589092285],"max":[0.14088889176120217,0.9479430680415641,0.5458015292497709]},{"bufferView":1,"componentType":5126,"count":156,"type":"VEC3"},{"bufferView":2,"componentType":5126,"count":156,"type":"VEC2"},{"bufferView":3,"componentType":5123,"count":270,"type":"SCALAR"}],"meshes":[{"primitives":[{"attributes":{"POSITION":0,"NORMAL":1,"TEXCOORD_0":2},"indices":3,"mode":4}]}],"nodes":[{"mesh":0}],"scenes":[{"nodes":[0]}],"scene":0}