{"asset":{"version":"2.0","generator":"game-67-idle static GLB extractor","extras":{"source":"C:/projects/game-67-idle/assets/source/models/quaternius/poly_pizza_quaternius_robot_enemy_legs_gun_cc0.glb"}},"buffers":[{"uri":"data:application/octet-stream;base64,","byteLength":976}],"bufferViews":[{"buffer":0,"byteOffset":0,"byteLength":312,"target":34962},{"buffer":0,"byteOffset":312,"byteLength":312,"target":34962},{"buffer":0,"byteOffset":624,"byteLength":208,"target":34962},{"buffer":0,"byteOffset":832,"byteLength":144,"target":34963}],"accessors":[{"bufferView":0,"componentType":5126,"count":26,"type":"VEC3","min":[-0.07064691744744778,0.3996244737060868,0.18021792884021856],"max":[0.07064687088131905,0.5423712134974973,0.18021794801950786]},{"bufferView":1,"componentType":5126,"count":26,"type":"VEC3"},{"bufferView":2,"componentType":5126,"count":26,"type":"VEC2"},{"bufferView":3,"componentType":5123,"count":72,"type":"SCALAR"}],"meshes":[{"primitives":[{"attributes":{"POSITION":0,"NORMAL":1,"TEXCOORD_0":2},"indices":3,"mode":4}]}],"nodes":[{"mesh":0}],"scenes":[{"nodes":[0]}],"scene":0}