{"asset":{"version":"2.0","generator":"game-67-idle static GLB extractor","extras":{"source":"C:/projects/game-67-idle/assets/source/models/quaternius/poly_pizza_quaternius_robot_enemy_legs_gun_cc0.glb"}},"buffers":[{"uri":"data:application/octet-stream;base64,","byteLength":33784}],"bufferViews":[{"buffer":0,"byteOffset":0,"byteLength":9996,"target":34962},{"buffer":0,"byteOffset":9996,"byteLength":9996,"target":34962},{"buffer":0,"byteOffset":19992,"byteLength":6664,"target":34962},{"buffer":0,"byteOffset":26656,"byteLength":7128,"target":34963}],"accessors":[{"bufferView":0,"componentType":5126,"count":833,"type":"VEC3","min":[-0.5581711884588003,0.3177193752266638,-0.23379077676287088],"max":[0.5581711884588003,0.7066541146326233,0.2285092816963923]},{"bufferView":1,"componentType":5126,"count":833,"type":"VEC3"},{"bufferView":2,"componentType":5126,"count":833,"type":"VEC2"},{"bufferView":3,"componentType":5123,"count":3564,"type":"SCALAR"}],"meshes":[{"primitives":[{"attributes":{"POSITION":0,"NORMAL":1,"TEXCOORD_0":2},"indices":3,"mode":4}]}],"nodes":[{"mesh":0}],"scenes":[{"nodes":[0]}],"scene":0}