{"asset":{"version":"2.0","generator":"game-67-idle static GLB extractor","extras":{"source":"C:/projects/game-67-idle/assets/source/models/poly_pizza/alimayo_arango/poly_pizza_alimayo_mech_assault_walker_ccby30.glb"}},"buffers":[{"uri":"data:application/octet-stream;base64,","byteLength":215968}],"bufferViews":[{"buffer":0,"byteOffset":0,"byteLength":63996,"target":34962},{"buffer":0,"byteOffset":63996,"byteLength":63996,"target":34962},{"buffer":0,"byteOffset":127992,"byteLength":42664,"target":34962},{"buffer":0,"byteOffset":170656,"byteLength":45312,"target":34963}],"accessors":[{"bufferView":0,"componentType":5126,"count":5333,"type":"VEC3","min":[-8.216506958007812,0.1155100017786026,-8.18929386138916],"max":[7.244657039642334,10.325931549072266,7.344313144683838]},{"bufferView":1,"componentType":5126,"count":5333,"type":"VEC3"},{"bufferView":2,"componentType":5126,"count":5333,"type":"VEC2"},{"bufferView":3,"componentType":5123,"count":22656,"type":"SCALAR"}],"meshes":[{"primitives":[{"attributes":{"POSITION":0,"NORMAL":1,"TEXCOORD_0":2},"indices":3,"mode":4}]}],"nodes":[{"mesh":0}],"scenes":[{"nodes":[0]}],"scene":0}