{"asset":{"version":"2.0","generator":"game-67-idle static GLB extractor","extras":{"source":"C:/projects/game-67-idle/assets/source/models/quaternius/poly_pizza_quaternius_robot_enemy_legs_gun_cc0.glb"}},"buffers":[{"uri":"data:application/octet-stream;base64,","byteLength":13240}],"bufferViews":[{"buffer":0,"byteOffset":0,"byteLength":4056,"target":34962},{"buffer":0,"byteOffset":4056,"byteLength":4056,"target":34962},{"buffer":0,"byteOffset":8112,"byteLength":2704,"target":34962},{"buffer":0,"byteOffset":10816,"byteLength":2424,"target":34963}],"accessors":[{"bufferView":0,"componentType":5126,"count":338,"type":"VEC3","min":[-0.6393393501639366,-0.0037991407757655945,-0.051600012600947806],"max":[0.6393393501639366,0.58036517504263,0.228509297063981]},{"bufferView":1,"componentType":5126,"count":338,"type":"VEC3"},{"bufferView":2,"componentType":5126,"count":338,"type":"VEC2"},{"bufferView":3,"componentType":5123,"count":1212,"type":"SCALAR"}],"meshes":[{"primitives":[{"attributes":{"POSITION":0,"NORMAL":1,"TEXCOORD_0":2},"indices":3,"mode":4}]}],"nodes":[{"mesh":0}],"scenes":[{"nodes":[0]}],"scene":0}