{"asset":{"version":"2.0","generator":"game-67-idle static GLB extractor","extras":{"source":"C:/projects/game-67-idle/assets/source/models/poly_pizza/alimayo_arango/poly_pizza_alimayo_mech_assault_walker_ccby30.glb"}},"buffers":[{"uri":"data:application/octet-stream;base64,","byteLength":4772}],"bufferViews":[{"buffer":0,"byteOffset":0,"byteLength":1560,"target":34962},{"buffer":0,"byteOffset":1560,"byteLength":1560,"target":34962},{"buffer":0,"byteOffset":3120,"byteLength":1040,"target":34962},{"buffer":0,"byteOffset":4160,"byteLength":612,"target":34963}],"accessors":[{"bufferView":0,"componentType":5126,"count":130,"type":"VEC3","min":[3.2319459915161133,2.620655059814453,2.2477450370788574],"max":[3.825093984603882,4.247529983520508,4.465182781219482]},{"bufferView":1,"componentType":5126,"count":130,"type":"VEC3"},{"bufferView":2,"componentType":5126,"count":130,"type":"VEC2"},{"bufferView":3,"componentType":5123,"count":306,"type":"SCALAR"}],"meshes":[{"primitives":[{"attributes":{"POSITION":0,"NORMAL":1,"TEXCOORD_0":2},"indices":3,"mode":4}]}],"nodes":[{"mesh":0}],"scenes":[{"nodes":[0]}],"scene":0}