{"asset":{"version":"2.0","generator":"game-67-idle static GLB extractor","extras":{"source":"C:/projects/game-67-idle/assets/source/models/poly_pizza/tekano_bob/poly_pizza_tekano_sentinel_mech_ccby30.glb"}},"buffers":[{"uri":"data:application/octet-stream;base64,","byteLength":155948}],"bufferViews":[{"buffer":0,"byteOffset":0,"byteLength":53832,"target":34962},{"buffer":0,"byteOffset":53832,"byteLength":53832,"target":34962},{"buffer":0,"byteOffset":107664,"byteLength":35888,"target":34962},{"buffer":0,"byteOffset":143552,"byteLength":12396,"target":34963}],"accessors":[{"bufferView":0,"componentType":5126,"count":4486,"type":"VEC3","min":[-1.3750720024108887,0.1632390022277832,-0.9403293132781982],"max":[1.4329420328140259,2.27720308303833,0.8197284936904907]},{"bufferView":1,"componentType":5126,"count":4486,"type":"VEC3"},{"bufferView":2,"componentType":5126,"count":4486,"type":"VEC2"},{"bufferView":3,"componentType":5123,"count":6198,"type":"SCALAR"}],"meshes":[{"primitives":[{"attributes":{"POSITION":0,"NORMAL":1,"TEXCOORD_0":2},"indices":3,"mode":4}]}],"nodes":[{"mesh":0}],"scenes":[{"nodes":[0]}],"scene":0}