{"asset":{"version":"2.0","generator":"game-67-idle static GLB extractor","extras":{"source":"C:/projects/game-67-idle/assets/source/models/poly_pizza/tekano_bob/poly_pizza_tekano_sentinel_mech_ccby30.glb"}},"buffers":[{"uri":"data:application/octet-stream;base64,","byteLength":865636}],"bufferViews":[{"buffer":0,"byteOffset":0,"byteLength":295800,"target":34962},{"buffer":0,"byteOffset":295800,"byteLength":295800,"target":34962},{"buffer":0,"byteOffset":591600,"byteLength":197200,"target":34962},{"buffer":0,"byteOffset":788800,"byteLength":76836,"target":34963}],"accessors":[{"bufferView":0,"componentType":5126,"count":24650,"type":"VEC3","min":[-1.4819740056991577,-2.4670770168304443,-1.4009770154953003],"max":[1.6559170484542847,1.9745930433273315,0.8707633018493652]},{"bufferView":1,"componentType":5126,"count":24650,"type":"VEC3"},{"bufferView":2,"componentType":5126,"count":24650,"type":"VEC2"},{"bufferView":3,"componentType":5123,"count":38418,"type":"SCALAR"}],"meshes":[{"primitives":[{"attributes":{"POSITION":0,"NORMAL":1,"TEXCOORD_0":2},"indices":3,"mode":4}]}],"nodes":[{"mesh":0}],"scenes":[{"nodes":[0]}],"scene":0}