{"asset":{"version":"2.0","generator":"game-67-idle static GLB extractor","extras":{"source":"C:/projects/game-67-idle/assets/source/models/poly_pizza/tekano_bob/poly_pizza_tekano_sentinel_mech_ccby30.glb"}},"buffers":[{"uri":"data:application/octet-stream;base64,","byteLength":6994}],"bufferViews":[{"buffer":0,"byteOffset":0,"byteLength":2400,"target":34962},{"buffer":0,"byteOffset":2400,"byteLength":2400,"target":34962},{"buffer":0,"byteOffset":4800,"byteLength":1600,"target":34962},{"buffer":0,"byteOffset":6400,"byteLength":594,"target":34963}],"accessors":[{"bufferView":0,"componentType":5126,"count":200,"type":"VEC3","min":[-0.6531810164451599,-1.6608819961547852,-0.37220048904418945],"max":[0.6830027103424072,-1.4439400434494019,0.17835770547389984]},{"bufferView":1,"componentType":5126,"count":200,"type":"VEC3"},{"bufferView":2,"componentType":5126,"count":200,"type":"VEC2"},{"bufferView":3,"componentType":5123,"count":297,"type":"SCALAR"}],"meshes":[{"primitives":[{"attributes":{"POSITION":0,"NORMAL":1,"TEXCOORD_0":2},"indices":3,"mode":4}]}],"nodes":[{"mesh":0}],"scenes":[{"nodes":[0]}],"scene":0}