{"asset":{"version":"2.0","generator":"game-67-idle static GLB extractor","extras":{"source":"C:/projects/game-67-idle/assets/source/models/quaternius/poly_pizza_quaternius_robot_enemy_legs_gun_cc0.glb"}},"buffers":[{"uri":"data:application/octet-stream;base64,","byteLength":14128}],"bufferViews":[{"buffer":0,"byteOffset":0,"byteLength":4776,"target":34962},{"buffer":0,"byteOffset":4776,"byteLength":4776,"target":34962},{"buffer":0,"byteOffset":9552,"byteLength":3184,"target":34962},{"buffer":0,"byteOffset":12736,"byteLength":1392,"target":34963}],"accessors":[{"bufferView":0,"componentType":5126,"count":398,"type":"VEC3","min":[-0.16045464899034917,0.6133177086890218,-0.1635230206108178],"max":[0.16045464526505887,0.9287316526156715,0.6591448188910389]},{"bufferView":1,"componentType":5126,"count":398,"type":"VEC3"},{"bufferView":2,"componentType":5126,"count":398,"type":"VEC2"},{"bufferView":3,"componentType":5123,"count":696,"type":"SCALAR"}],"meshes":[{"primitives":[{"attributes":{"POSITION":0,"NORMAL":1,"TEXCOORD_0":2},"indices":3,"mode":4}]}],"nodes":[{"mesh":0}],"scenes":[{"nodes":[0]}],"scene":0}