{"asset":{"version":"2.0","generator":"game-67-idle static GLB extractor","extras":{"source":"C:/projects/game-67-idle/assets/source/models/poly_pizza/tekano_bob/poly_pizza_tekano_sentinel_mech_ccby30.glb"}},"buffers":[{"uri":"data:application/octet-stream;base64,","byteLength":29136}],"bufferViews":[{"buffer":0,"byteOffset":0,"byteLength":9936,"target":34962},{"buffer":0,"byteOffset":9936,"byteLength":9936,"target":34962},{"buffer":0,"byteOffset":19872,"byteLength":6624,"target":34962},{"buffer":0,"byteOffset":26496,"byteLength":2640,"target":34963}],"accessors":[{"bufferView":0,"componentType":5126,"count":828,"type":"VEC3","min":[1.1181529760360718,-0.844232976436615,-0.8159013986587524],"max":[1.6559170484542847,0.12534399330615997,-0.04306519031524658]},{"bufferView":1,"componentType":5126,"count":828,"type":"VEC3"},{"bufferView":2,"componentType":5126,"count":828,"type":"VEC2"},{"bufferView":3,"componentType":5123,"count":1320,"type":"SCALAR"}],"meshes":[{"primitives":[{"attributes":{"POSITION":0,"NORMAL":1,"TEXCOORD_0":2},"indices":3,"mode":4}]}],"nodes":[{"mesh":0}],"scenes":[{"nodes":[0]}],"scene":0}