{"asset":{"version":"2.0","generator":"game-67-idle static GLB extractor","extras":{"source":"C:/projects/game-67-idle/assets/source/models/poly_pizza/alimayo_arango/poly_pizza_alimayo_mech_assault_walker_ccby30.glb"}},"buffers":[{"uri":"data:application/octet-stream;base64,","byteLength":3744}],"bufferViews":[{"buffer":0,"byteOffset":0,"byteLength":1116,"target":34962},{"buffer":0,"byteOffset":1116,"byteLength":1116,"target":34962},{"buffer":0,"byteOffset":2232,"byteLength":744,"target":34962},{"buffer":0,"byteOffset":2976,"byteLength":768,"target":34963}],"accessors":[{"bufferView":0,"componentType":5126,"count":93,"type":"VEC3","min":[-2.145214080810547,2.6205739974975586,-0.2976279854774475],"max":[2.145214080810547,8.001104354858398,6.722640037536621]},{"bufferView":1,"componentType":5126,"count":93,"type":"VEC3"},{"bufferView":2,"componentType":5126,"count":93,"type":"VEC2"},{"bufferView":3,"componentType":5123,"count":384,"type":"SCALAR"}],"meshes":[{"primitives":[{"attributes":{"POSITION":0,"NORMAL":1,"TEXCOORD_0":2},"indices":3,"mode":4}]}],"nodes":[{"mesh":0}],"scenes":[{"nodes":[0]}],"scene":0}