{"asset":{"version":"2.0","generator":"game-67-idle static GLB extractor","extras":{"source":"C:/projects/game-67-idle/assets/source/models/quaternius/poly_pizza_quaternius_robot_enemy_legs_gun_cc0.glb"}},"buffers":[{"uri":"data:application/octet-stream;base64,","byteLength":37280}],"bufferViews":[{"buffer":0,"byteOffset":0,"byteLength":11136,"target":34962},{"buffer":0,"byteOffset":11136,"byteLength":11136,"target":34962},{"buffer":0,"byteOffset":22272,"byteLength":7424,"target":34962},{"buffer":0,"byteOffset":29696,"byteLength":7584,"target":34963}],"accessors":[{"bufferView":0,"componentType":5126,"count":928,"type":"VEC3","min":[-0.6478674244135618,0.022115998207057088,-0.23379077542390195],"max":[0.6478674244135618,0.4660149562587072,0.2285092984016423]},{"bufferView":1,"componentType":5126,"count":928,"type":"VEC3"},{"bufferView":2,"componentType":5126,"count":928,"type":"VEC2"},{"bufferView":3,"componentType":5123,"count":3792,"type":"SCALAR"}],"meshes":[{"primitives":[{"attributes":{"POSITION":0,"NORMAL":1,"TEXCOORD_0":2},"indices":3,"mode":4}]}],"nodes":[{"mesh":0}],"scenes":[{"nodes":[0]}],"scene":0}