{"asset":{"version":"2.0","generator":"game-67-idle static GLB extractor","extras":{"source":"C:/projects/game-67-idle/assets/source/models/quaternius/poly_pizza_quaternius_robot_enemy_legs_gun_cc0.glb"}},"buffers":[{"uri":"data:application/octet-stream;base64,","byteLength":50152}],"bufferViews":[{"buffer":0,"byteOffset":0,"byteLength":15432,"target":34962},{"buffer":0,"byteOffset":15432,"byteLength":15432,"target":34962},{"buffer":0,"byteOffset":30864,"byteLength":10288,"target":34962},{"buffer":0,"byteOffset":41152,"byteLength":9000,"target":34963}],"accessors":[{"bufferView":0,"componentType":5126,"count":1286,"type":"VEC3","min":[-0.5674903746694326,0.23023480692715778,-0.23379077676287088],"max":[0.5674903746694326,0.6218886502760665,0.2285092984016423]},{"bufferView":1,"componentType":5126,"count":1286,"type":"VEC3"},{"bufferView":2,"componentType":5126,"count":1286,"type":"VEC2"},{"bufferView":3,"componentType":5123,"count":4500,"type":"SCALAR"}],"meshes":[{"primitives":[{"attributes":{"POSITION":0,"NORMAL":1,"TEXCOORD_0":2},"indices":3,"mode":4}]}],"nodes":[{"mesh":0}],"scenes":[{"nodes":[0]}],"scene":0}