{
  "asset": {
    "version": "2.0",
    "generator": "Splash Rods generated low-poly source"
  },
  "buffers": [
    {
      "uri": "fish_trophy.bin",
      "byteLength": 408
    }
  ],
  "bufferViews": [
    {
      "buffer": 0,
      "byteOffset": 0,
      "byteLength": 180,
      "target": 34962
    },
    {
      "buffer": 0,
      "byteOffset": 180,
      "byteLength": 120,
      "target": 34962
    },
    {
      "buffer": 0,
      "byteOffset": 300,
      "byteLength": 108,
      "target": 34963
    }
  ],
  "accessors": [
    {
      "bufferView": 0,
      "componentType": 5126,
      "count": 15,
      "type": "VEC3",
      "min": [
        -0.72,
        -0.3,
        -0.26
      ],
      "max": [
        0.95,
        0.48,
        0.18
      ]
    },
    {
      "bufferView": 1,
      "componentType": 5126,
      "count": 15,
      "type": "VEC2"
    },
    {
      "bufferView": 2,
      "componentType": 5123,
      "count": 54,
      "type": "SCALAR"
    }
  ],
  "meshes": [
    {
      "name": "fish_trophy",
      "primitives": [
        {
          "attributes": {
            "POSITION": 0,
            "TEXCOORD_0": 1
          },
          "indices": 2,
          "mode": 4
        }
      ]
    }
  ],
  "nodes": [
    {
      "mesh": 0,
      "name": "fish_trophy"
    }
  ],
  "scenes": [
    {
      "nodes": [
        0
      ]
    }
  ],
  "scene": 0
}