{
  "asset": {
    "version": "2.0",
    "generator": "Splash Rods generated low-poly source"
  },
  "buffers": [
    {
      "uri": "palm_leaf_chunk.bin",
      "byteLength": 148
    }
  ],
  "bufferViews": [
    {
      "buffer": 0,
      "byteOffset": 0,
      "byteLength": 60,
      "target": 34962
    },
    {
      "buffer": 0,
      "byteOffset": 60,
      "byteLength": 40,
      "target": 34962
    },
    {
      "buffer": 0,
      "byteOffset": 100,
      "byteLength": 48,
      "target": 34963
    }
  ],
  "accessors": [
    {
      "bufferView": 0,
      "componentType": 5126,
      "count": 5,
      "type": "VEC3",
      "min": [
        -0.72,
        -0.1,
        -0.12
      ],
      "max": [
        0.72,
        0.1,
        0.12
      ]
    },
    {
      "bufferView": 1,
      "componentType": 5126,
      "count": 5,
      "type": "VEC2"
    },
    {
      "bufferView": 2,
      "componentType": 5123,
      "count": 24,
      "type": "SCALAR"
    }
  ],
  "meshes": [
    {
      "name": "palm_leaf_chunk",
      "primitives": [
        {
          "attributes": {
            "POSITION": 0,
            "TEXCOORD_0": 1
          },
          "indices": 2,
          "mode": 4
        }
      ]
    }
  ],
  "nodes": [
    {
      "mesh": 0,
      "name": "palm_leaf_chunk"
    }
  ],
  "scenes": [
    {
      "nodes": [
        0
      ]
    }
  ],
  "scene": 0
}