{
  "asset": {
    "version": "2.0",
    "generator": "Splash Rods generated low-poly source"
  },
  "buffers": [
    {
      "uri": "toy_boat_hull.bin",
      "byteLength": 276
    }
  ],
  "bufferViews": [
    {
      "buffer": 0,
      "byteOffset": 0,
      "byteLength": 108,
      "target": 34962
    },
    {
      "buffer": 0,
      "byteOffset": 108,
      "byteLength": 72,
      "target": 34962
    },
    {
      "buffer": 0,
      "byteOffset": 180,
      "byteLength": 96,
      "target": 34963
    }
  ],
  "accessors": [
    {
      "bufferView": 0,
      "componentType": 5126,
      "count": 9,
      "type": "VEC3",
      "min": [
        -1.12,
        -0.36,
        -0.42
      ],
      "max": [
        1.12,
        0.16,
        0.42
      ]
    },
    {
      "bufferView": 1,
      "componentType": 5126,
      "count": 9,
      "type": "VEC2"
    },
    {
      "bufferView": 2,
      "componentType": 5123,
      "count": 48,
      "type": "SCALAR"
    }
  ],
  "meshes": [
    {
      "name": "toy_boat_hull",
      "primitives": [
        {
          "attributes": {
            "POSITION": 0,
            "TEXCOORD_0": 1
          },
          "indices": 2,
          "mode": 4
        }
      ]
    }
  ],
  "nodes": [
    {
      "mesh": 0,
      "name": "toy_boat_hull"
    }
  ],
  "scenes": [
    {
      "nodes": [
        0
      ]
    }
  ],
  "scene": 0
}